<?xml version="1.0" encoding="UTF-8"?>
<svg version="1.1" viewBox="0 0 1600 464" width="1280" height="1280" xmlns="http://www.w3.org/2000/svg">
<path transform="translate(274,115)" d="m0 0c0.99 0.33 1.98 0.66 3 1 0.433 1.21 0.433 1.21 0.875 2.44 1.48 3.37 2.78 3.24 6.12 4.56 1.95 1.87 3.39 3.79 5 6v2c0.99 0.33 1.98 0.66 3 1v2c0.99 0.33 1.98 0.66 3 1 2 3 2 3 1.81 5-0.927 2.28-1.9 3.47-3.81 5h-2c-0.268 0.639-0.536 1.28-0.812 1.94-1.19 2.06-1.19 2.06-4.19 3.06-0.699 1.32-1.36 2.65-2 4-1.52 1.68-1.52 1.68-3.25 3.31-2.38 2.3-4.59 4.63-6.69 7.19-3.29 3.9-6.96 7.46-11.1 10.5h-2c-0.206 0.722-0.413 1.44-0.625 2.19-1.47 3.01-3.17 4.52-5.8 6.56-3.39 2.68-6.28 5.94-9.27 9.06-2.31 2.19-2.31 2.19-4.31 2.19-0.248 0.557-0.495 1.11-0.75 1.69-2.21 4.1-5 7.18-8.56 10.1-2.65 2.2-4.9 4.49-7.12 7.12-2.36 2.78-4.78 5.21-7.56 7.56-3.49 2.96-6.45 6.17-9.41 9.65-2.08 2.41-4.31 4.63-6.59 6.85-0.887 0.928-1.77 1.86-2.69 2.81-2.31 2.19-2.31 2.19-4.31 2.19 0.393 4.94 2.88 7.43 6.28 10.7 0.527 0.526 1.05 1.05 1.6 1.59 1.11 1.1 2.23 2.2 3.35 3.3 1.72 1.68 3.42 3.38 5.12 5.08 1.08 1.07 2.16 2.14 3.25 3.21 0.512 0.509 1.02 1.02 1.55 1.54 2.48 2.72 2.48 2.72 5.86 3.53v2c3.61-2.92 6.98-5.84 9.94-9.44 2.78-3.36 5.88-6.12 9.19-8.95 3.74-3.22 7-6.74 10.2-10.5 2.92-3.38 6.04-6.25 9.44-9.14 4.63-4.1 8.9-8.59 13.2-13 1.67-1.67 3.33-3.33 5-5 1.13-1.12 2.25-2.25 3.38-3.38 15.2-15.2 30.4-30.4 45.6-45.6 3.27 1.09 3.96 1.85 6.06 4.44 1.6 1.95 3.15 3.78 4.94 5.56 0.433 0.99 0.433 0.99 0.875 2 1.36 2.42 2.59 2.99 5.12 4v2c0.722 0.227 1.44 0.454 2.19 0.688 3.4 1.59 5.26 3.57 7.81 6.31 1.24 1.24 1.24 1.24 2.5 2.5 1.24 1.24 1.24 1.24 2.5 2.5 0.742 0.722 1.49 1.44 2.25 2.19 2.46 2.52 4.79 5.11 7.12 7.75 3.14 3.52 6.33 6.61 9.97 9.6 2.42 2.14 4.41 4.59 6.49 7.05 3.38 3.78 7.01 7.31 10.6 10.8 6.18 6.08 6.18 6.08 7.53 8.57-0.316 6.54-5.5 10.7-10.1 14.9-1.3 1.13-2.62 2.26-3.94 3.37-2.45 2.14-4.71 4.43-6.99 6.74-0.802 0.79-1.6 1.58-2.43 2.39-3.89 3.85-7.71 7.69-11.3 11.9-2.63 3.08-5.44 5.62-8.57 8.19-1.91 1.71-3.53 3.54-5.18 5.5-2.96 3.49-6.17 6.39-9.66 9.35-1.82 1.64-3.35 3.32-4.9 5.21-2 2.42-4.04 4.48-6.44 6.5-4.29 3.65-8.27 7.59-12.2 11.6-0.642 0.637-1.28 1.27-1.95 1.93-2.87 2.88-5.63 5.76-8.19 8.93-2.31 2.73-2.9 2.9-6.18 3.57-0.699 1.32-1.37 2.65-2 4-0.99 0.33-1.98 0.66-3 1-0.33 0.66-0.66 1.32-1 2-0.33 0.66-0.66 1.32-1 2-0.99 0.33-1.98 0.66-3 1-0.33 0.66-0.66 1.32-1 2-0.33 0.66-0.66 1.32-1 2-0.99 0.33-1.98 0.66-3 1-0.33 0.66-0.66 1.32-1 2-0.33 0.66-0.66 1.32-1 2-0.99 0.33-1.98 0.66-3 1-0.33 0.66-0.66 1.32-1 2-0.33 0.66-0.66 1.32-1 2-0.99 0.33-1.98 0.66-3 1-1.21 2-1.21 2-2 4-4.27-0.493-6.27-2.93-9.2-5.91-0.483-0.487-0.965-0.974-1.46-1.48-1.54-1.55-3.06-3.11-4.58-4.68-1.04-1.06-2.08-2.11-3.12-3.17-2.55-2.58-5.09-5.17-7.62-7.77 5.3-6.43 11.2-12.3 17.1-18.1 0.99-0.985 1.98-1.97 2.97-2.96 1.82-1.82 3.65-3.63 5.47-5.44 2.5-2.49 5-4.98 7.49-7.48l24.6-24.6c0.861-0.862 0.861-0.862 1.74-1.74 1.47-1.47 2.95-2.93 4.43-4.39 2.31-2.27 2.31-2.27 4.52-5.12 2.55-3.13 5.49-5.64 8.56-8.25 2.99-2.64 5.72-5.49 8.46-8.38 1.66-1.5 1.66-1.5 3.66-1.5 0.33-0.99 0.66-1.98 1-3 1.44-1.25 2.89-2.49 4.38-3.67 2.37-1.95 4.48-4.13 6.62-6.33l3-3c-0.651-1.67-1.32-3.34-2-5-0.433-1.08-0.433-1.08-0.875-2.19-1.39-2.24-2.79-2.68-5.12-3.81-0.33-0.99-0.66-1.98-1-3-0.66-0.33-1.32-0.66-2-1-2-1-2-1-3-4-0.66-0.33-1.32-0.66-2-1-2-1-2-1-3-4-0.66-0.33-1.32-0.66-2-1-2-1-2-1-3-4-3 0.0713-5.22 0.256-7.45 2.38-0.986 1.21-1.96 2.43-2.92 3.66-1.71 2.05-3.52 3.68-5.57 5.39-3.49 2.96-6.39 6.17-9.35 9.66-2.14 2.37-4.51 4.32-6.97 6.34-1.91 1.71-3.53 3.54-5.18 5.5-2.98 3.52-6.21 6.49-9.77 9.42-1.89 1.62-1.89 1.62-3.41 3.84-0.459 0.593-0.918 1.19-1.39 1.8h-2c-0.262 0.599-0.523 1.2-0.793 1.82-1.28 2.31-2.47 3.48-4.52 5.12-3.08 2.54-5.9 5.2-8.69 8.06-0.763 0.742-1.53 1.48-2.31 2.25-2.28 2.34-4.42 4.72-6.56 7.19-2.94 3.34-5.97 6.22-9.4 9.03-2.62 2.33-4.83 4.99-7.11 7.66-3.26 3.79-6.85 7.11-10.6 10.4-4.67 4.06-8.87 8.34-12.9 13-3.15 3.57-6.35 6.53-10.1 9.5-2.52 2.4-4.81 4.75-6.94 7.5-2.46 2.99-4.98 5.16-8.06 7.5h-2c-0.268 0.639-0.536 1.28-0.812 1.94-1.19 2.06-1.19 2.06-4.19 3.06-0.688 1.32-1.35 2.66-2 4-1.38 1.64-2.82 3.22-4.31 4.75-0.759 0.799-1.52 1.6-2.3 2.42-2.39 1.83-2.39 1.83-4.93 2.29-2.97-0.554-4.19-1.47-6.39-3.52-0.69-0.641-1.38-1.28-2.09-1.94-2.28-2.31-4.35-4.73-6.41-7.24-2.35-2.63-5-4.85-7.68-7.13-2.42-2.09-4.65-4.33-6.88-6.62-0.825-0.825-1.65-1.65-2.5-2.5-0.825-0.825-1.65-1.65-2.5-2.5-0.846-0.825-1.69-1.65-2.56-2.5-2.44-2.5-2.44-2.5-4.25-4.88-2.49-2.99-5.26-5.39-8.21-7.92-2.47-2.14-4.77-4.3-6.97-6.71v-2c-0.835-0.34-0.835-0.34-1.69-0.688-2.97-1.69-5.03-3.78-7.31-6.31v-2c-0.593-0.254-1.19-0.508-1.8-0.77-2.45-1.37-3.7-2.75-5.45-4.92-3.06-3.63-6.34-6.7-9.95-9.78-2.05-1.75-4.01-3.52-5.8-5.54v-2c-0.928-0.371-0.928-0.371-1.88-0.75-2.53-1.49-2.84-2.69-4.12-5.25-1.33-0.683-2.66-1.35-4-2-0.33-0.99-0.66-1.98-1-3-0.66-0.33-1.32-0.66-2-1-2-1-2-1-3-4-0.66-0.33-1.32-0.66-2-1-2-1-2-1-3-4-0.66-0.33-1.32-0.66-2-1-2-1-2-1-3-4-0.66-0.33-1.32-0.66-2-1-2-1-2-1-3-4-1.33-0.676-2.66-1.34-4-2-1.92-1.95-1.92-1.95-3.75-4.12-0.614-0.724-1.23-1.45-1.86-2.2-0.688-0.831-0.688-0.831-1.39-1.68 6.19-7.58 13.2-14.3 20.2-21.2 5.83-5.77 11.5-11.5 16.8-17.8 1.32-1.25 2.67-2.46 4.06-3.62 3.15-2.64 6.05-5.45 8.94-8.38 1.05-1.04 2.1-2.08 3.16-3.12 1.11-1.11 2.23-2.21 3.34-3.32 0.833-0.821 0.833-0.821 1.68-1.66 2.63-2.61 5.15-5.24 7.5-8.12 1.9-2.28 3.67-4.11 5.95-5.98 5.43-4.63 10.4-9.74 15.4-14.8 1.33-1.31 1.33-1.31 2.69-2.66 2.4-2.35 2.4-2.35 4.62-5.22 1.87-2.29 3.85-4.17 6.12-6.07 3.59-3.1 6.94-6.4 10.2-9.8 0.494-0.507 0.988-1.01 1.5-1.54 2.05-2.11 4.11-4.22 6.14-6.35 1.5-1.57 3.02-3.13 4.55-4.68 1.34-1.39 1.34-1.39 2.7-2.8 2.44-1.89 2.44-1.89 4.65-1.79 2.36 1.19 3.58 2.66 5.23 4.71 2.64 3.16 5.28 5.68 8.56 8.19 2.71 2.58 4.92 4.88 7 8-0.0852 3.92-0.643 5.59-3.25 8.56-0.908 0.804-1.82 1.61-2.75 2.44-0.784 0.804-1.57 1.61-2.38 2.44-8.77 8.56-8.77 8.56-11.6 8.56-0.268 0.639-0.536 1.28-0.812 1.94-1.19 2.06-1.19 2.06-4.19 3.06-0.495 0.99-0.495 0.99-1 2-0.495 0.99-0.495 0.99-1 2-1.49 0.495-1.49 0.495-3 1-0.402 0.835-0.402 0.835-0.812 1.69-1.72 3.35-4.27 5.94-7.19 8.31h-2c-0.248 0.557-0.495 1.11-0.75 1.69-2.34 4.32-5.35 7.47-9.06 10.6-2.82 2.4-5.3 4.86-7.69 7.69-2.87 3.38-5.94 6.21-9.32 9.08-4.26 3.76-8.19 7.87-12.2 11.9-3.02 3.05-6.08 6.05-9.17 9.03-1.53 1.49-3.05 2.98-4.58 4.47l-2.36 2.26c-0.741 0.728-1.48 1.46-2.25 2.21-0.675 0.654-1.35 1.31-2.05 1.98-1.84 2.36-2.24 4.11-2.59 7.05 0.846 0.66 1.69 1.32 2.56 2 2.37 1.97 4.39 4.02 6.38 6.38 5.36 6.3 11.4 12 17.2 17.8 4.32 4.28 8.6 8.59 12.9 12.9 3.27 3.28 6.53 6.56 9.8 9.83 1.72 1.73 3.44 3.45 5.16 5.18 2.49 2.5 4.99 5 7.48 7.5 0.763 0.768 1.53 1.54 2.31 2.33 3.92 3.92 7.87 7.62 12.2 11.1 0.949 0.763 1.9 1.53 2.88 2.31l2.12 1.69c5.94-4.93 11.4-10.2 16.9-15.7 0.866-0.854 1.73-1.71 2.62-2.59 1.23-1.23 1.23-1.23 2.49-2.49 0.746-0.742 1.49-1.48 2.26-2.25 1.95-1.97 1.95-1.97 2.75-4.99-1.12-3.37-2-4.06-4.69-6.25-3.34-2.83-6.17-5.76-8.95-9.12-1.98-2.35-4.16-4.48-6.37-6.62-2.51-2.51-5.02-5.02-7.5-7.56-2.43-2.45-2.43-2.45-5-4.44-2.72-2.17-5.14-4.44-7.5-7v-2l-1.94-0.812c-2.06-1.19-2.06-1.19-3.06-4.19-0.99-0.33-1.98-0.66-3-1-1.69-2.56-1.69-2.56-3-5 0.484-0.478 0.967-0.957 1.47-1.45 2.22-2.2 4.44-4.41 6.66-6.61 1.14-1.13 1.14-1.13 2.3-2.28 3.95-3.94 7.72-7.93 11.3-12.2 1.57-1.81 3.28-3.32 5.14-4.83 2.98-2.53 5.57-5.17 8.12-8.12 3.16-3.65 6.5-6.82 10.2-9.95 2.4-2.06 4.61-4.29 6.81-6.55 1.67-1.67 3.33-3.33 5-5 1.39-1.39 2.77-2.77 4.16-4.16l67.8-67.8z" fill="#FBFCFE"/>
<path transform="translate(466,114)" d="m0 0c5.28-0.199 10.6-0.343 15.9-0.439 1.8-0.0401 3.59-0.0946 5.39-0.164 14.9-0.564 14.9-0.564 19.4 2.3 1.75 2.02 3.02 3.99 4.34 6.3 1.11 1.16 2.26 2.29 3.44 3.38 2.56 2.62 2.56 2.62 2.56 4.62h2c1.55 1.61 1.55 1.61 3.31 3.75 2.68 3.17 5.42 5.69 8.69 8.25 1.37 1.64 2.7 3.31 4 5 3.65 4.45 7.5 8.56 11.7 12.5 1.32 1.48 1.32 1.48 1.32 3.48 0.598 0.268 1.2 0.536 1.81 0.812 3.4 1.85 5.57 4.6 8 7.56 1.98 2.34 3.81 4.14 6.19 6.12 2.97 2.47 5.22 5.03 7.61 8.05 1.44 1.73 1.44 1.73 4.39 2.45-0.00222-0.883-0.00444-1.77-0.00673-2.68-0.02-8.31-0.0353-16.6-0.0451-24.9-0.00522-4.27-0.0123-8.55-0.0236-12.8-0.0109-4.12-0.0168-8.25-0.0194-12.4-0.00185-1.57-0.00546-3.15-0.0109-4.72-0.00724-2.2-0.00826-4.41-0.0078-6.61-0.00222-1.25-0.00444-2.51-0.00673-3.8 0.12-3.06 0.12-3.06 1.12-6.06h45c-0.33 0.66-0.66 1.32-1 2-0.0937 1.88-0.122 3.75-0.12 5.63-0.00137 1.2-0.00275 2.4-0.00417 3.63 0.00354 1.33 0.00717 2.67 0.0109 4 2.82e-4 1.4 1.24e-4 2.8-4.43e-4 4.2-2.88e-4 3.81 0.0056 7.61 0.0126 11.4 0.00624 3.97 0.00684 7.95 0.00803 11.9 0.00311 7.53 0.0113 15.1 0.0213 22.6 0.0112 8.57 0.0167 17.1 0.0217 25.7 0.0105 17.6 0.0288 35.3 0.0503 52.9h-38v-2c-0.99-0.33-1.98-0.66-3-1-1.3-1.54-1.3-1.54-2.65-3.52-3.52-4.87-7.62-8.97-11.9-13.2-0.742-0.733-1.48-1.47-2.25-2.22-3.89-3.85-3.89-3.85-7.83-7.65-1.16-1.11-2.26-2.27-3.36-3.44v-2c-0.568-0.231-1.14-0.461-1.72-0.699-2.86-1.63-4.56-3.63-6.71-6.11-3.09-3.52-6.2-6.92-9.56-10.2-4.21-4.1-8.42-8.32-12-13v-2c-0.99-0.33-1.98-0.66-3-1-1.71-1.62-3.38-3.29-5-5l-2-2c-1.48 2.95-1.17 5.63-1.21 8.93-0.0099 0.712-0.0198 1.42-0.03 2.16-0.0316 2.36-0.0564 4.72-0.0811 7.08-0.0206 1.63-0.0416 3.27-0.063 4.9-0.0552 4.3-0.105 8.61-0.153 12.9-0.059 5.16-0.125 10.3-0.19 15.5-0.098 7.85-0.187 15.7-0.277 23.5h-44c-1.31-2.62-1.13-4.56-1.13-7.5-0.00282-1.17-0.00564-2.34-0.00854-3.54 0.00202-1.29 0.00405-2.58 0.00613-3.9-0.00135-1.36-0.00313-2.73-0.00531-4.09-0.00457-3.71-0.00279-7.43 3.79e-4 -11.1 0.00253-3.88 1.85e-4 -7.76-0.00139-11.6-0.00182-6.52 5.83e-4 -13 0.00534-19.6 0.00544-7.54 0.00368-15.1-0.00183-22.6-0.00454-6.47-0.00518-12.9-0.00256-19.4 0.00156-3.87 0.00176-7.73-0.00154-11.6-0.00289-3.64-8.91e-4 -7.27 0.00489-10.9 0.00196-1.97-0.00102-3.95-0.00413-5.92 0.00282-1.17 0.00564-2.34 0.00854-3.55 3.77e-4 -1.02 7.54e-4 -2.04 0.00114-3.09 0.126-2.53 0.126-2.53 1.13-5.53z" fill="#FAFBFD"/>
<path transform="translate(657,114)" d="m0 0h128v31c-3.72 0.0376-3.72 0.0376-7.51 0.0759-8.17 0.0833-16.3 0.172-24.5 0.263-4.96 0.0553-9.91 0.109-14.9 0.158-4.78 0.0476-9.56 0.0999-14.3 0.156-1.83 0.0205-3.65 0.0392-5.48 0.0561-2.55 0.024-5.1 0.054-7.65 0.0856-0.763 0.00576-1.53 0.0115-2.31 0.0174-3.46-0.259-3.46-0.259-6.33 1.19-0.099 1.55-0.131 3.1-0.133 4.66-0.00129 0.94-0.00258 1.88-0.00391 2.85 0.0058 1.48 0.0058 1.48 0.0117 3-0.00387 0.989-0.00773 1.98-0.0117 3 0.00193 1.41 0.00193 1.41 0.00391 2.85 0.00169 1.3 0.00169 1.3 0.00342 2.63-0.0948 2.02-0.0948 2.02 1.13 3.03 2.27 0.124 4.54 0.178 6.81 0.205 0.712 0.0099 1.42 0.0198 2.16 0.03 2.36 0.0317 4.73 0.0564 7.09 0.0811 1.64 0.0206 3.27 0.0416 4.91 0.063 4.31 0.0553 8.62 0.105 12.9 0.153 4.4 0.0502 8.79 0.106 13.2 0.161 8.63 0.108 17.3 0.209 25.9 0.307-0.495 0.99-0.495 0.99-1 2-0.0854 2.11-0.107 4.21-0.0977 6.32 0.00322 1.26 0.00645 2.51 0.00977 3.81 0.00838 1.32 0.0168 2.64 0.0254 4 0.00502 1.34 0.00958 2.68 0.0137 4.02 0.0118 3.29 0.0283 6.57 0.0488 9.86-0.9 0.0103-1.8 0.0206-2.73 0.0312-8.46 0.0978-16.9 0.2-25.4 0.308-4.35 0.0553-8.7 0.109-13.1 0.158-4.2 0.0476-8.39 0.0999-12.6 0.156-1.6 0.0204-3.21 0.0392-4.81 0.0561-2.24 0.024-4.48 0.054-6.72 0.0856-1.28 0.0155-2.55 0.0311-3.87 0.0471-2.75-0.166-2.75-0.166-3.85 1.16-0.0993 1.7-0.131 3.4-0.133 5.09-0.00129 1.03-0.00258 2.06-0.00391 3.12 0.0058 1.63 0.0058 1.63 0.0117 3.29-0.00387 1.08-0.00773 2.17-0.0117 3.29 0.00193 1.54 0.00193 1.54 0.00391 3.12 0.00169 1.43 0.00169 1.43 0.00342 2.88-0.118 2.18-0.118 2.18 1.13 3.21 2.68 0.125 5.33 0.186 8.01 0.205 1.26 0.0148 1.26 0.0148 2.54 0.03 2.79 0.0317 5.57 0.0564 8.36 0.0811 1.93 0.0206 3.85 0.0416 5.78 0.063 5.08 0.0553 10.2 0.105 15.2 0.153 5.18 0.0502 10.4 0.106 15.5 0.161 10.2 0.108 20.3 0.209 30.5 0.307-0.33 0.66-0.66 1.32-1 2-0.0856 2.18-0.107 4.36-0.0977 6.54 0.00322 1.3 0.00645 2.6 0.00977 3.95 0.00836 1.38 0.0168 2.76 0.0254 4.14 0.00501 1.39 0.00958 2.78 0.0137 4.16 0.0118 3.4 0.0283 6.81 0.0488 10.2-16.9 0.0467-33.8 0.082-50.7 0.104-7.85 0.0103-15.7 0.0244-23.6 0.0473-6.84 0.0199-13.7 0.0328-20.5 0.0373-3.63 0.00261-7.25 0.00877-10.9 0.0233-4.04 0.016-8.08 0.0165-12.1 0.0156-1.21 0.00719-2.42 0.0144-3.66 0.0218-1.1-0.00275-2.19-0.0055-3.32-0.00833-0.957 0.00184-1.91 0.00369-2.9 0.00559-2.28-0.246-2.28-0.246-4.28-2.25-0.249-2.41-0.249-2.41-0.247-5.5-0.00419-1.17-0.00839-2.34-0.0127-3.54 0.00562-1.29 0.0112-2.58 0.017-3.9-0.00107-1.36-0.00301-2.73-0.00575-4.09-0.00486-3.71 0.00282-7.43 0.013-11.1 0.00877-3.88 0.00702-7.76 0.00664-11.6 9.37e-4 -6.52 0.00963-13 0.0233-19.6 0.0157-7.54 0.021-15.1 0.0203-22.6-6.1e-4 -7.25 0.00449-14.5 0.0128-21.7 0.00353-3.09 0.00536-6.17 0.00589-9.26 1e-3 -3.64 0.0071-7.27 0.0172-10.9 0.00432-1.97 0.00375-3.95 0.00306-5.92 0.00426-1.17 0.00853-2.34 0.0129-3.55 0.00168-1.02 0.00335-2.04 0.00508-3.09 0.129-2.53 0.129-2.53 1.13-5.53z" fill="#F7F8FA"/>
<path transform="translate(1046,114)" d="m0 0h46c0.99 2.47 0.99 2.47 2 5 0.753 1.57 1.52 3.13 2.31 4.69 0.443 0.878 0.887 1.76 1.34 2.66 0.665 1.31 0.665 1.31 1.34 2.65 0.772 1.54 1.54 3.08 2.31 4.62 0.411 0.822 0.822 1.64 1.25 2.49 3.29 6.58 3.29 6.58 4.29 8.58 0.69 1.38 1.38 2.76 2.07 4.14 1.63 3.26 3.26 6.52 4.87 9.78 3.28 6.6 6.66 13.1 10.2 19.6 3.51 6.55 6.82 13.2 10.1 19.9 1.64 3.3 3.29 6.6 4.94 9.9l11.9 23.8c0.341 0.681 0.681 1.36 1.03 2.06 0.698 1.4 1.39 2.79 2.09 4.19 1.5 3.02 3.02 6.03 4.58 9.02 0.454 0.871 0.908 1.74 1.38 2.64 0.392 0.737 0.784 1.47 1.19 2.23 0.812 2.02 0.812 2.02 0.812 6.02-6.32 0.203-12.6 0.343-19 0.439-2.15 0.0402-4.3 0.0948-6.45 0.164-3.09 0.0972-6.18 0.142-9.27 0.178-0.959 0.0413-1.92 0.0826-2.9 0.125-2.7 0.00181-4.85-0.0806-7.43-0.906-2.35-2.39-3.67-4.95-5-8-0.571-1.13-1.14-2.25-1.73-3.41-0.481-1.06-0.962-2.12-1.46-3.21-0.489-1.06-0.977-2.13-1.48-3.23-1.26-2.99-2.31-6.07-3.33-9.15h-70c-8.65 15.6-8.65 15.6-13 27h-46c1.13-6.75 1.13-6.75 2.57-9.74 0.317-0.665 0.633-1.33 0.959-2.02 0.342-0.698 0.684-1.4 1.04-2.12 0.356-0.74 0.711-1.48 1.08-2.24 1.11-2.3 2.23-4.59 3.36-6.88 0.518-1.06 0.518-1.06 1.05-2.14 3.86-7.87 7.86-15.6 12-23.3 5.94-11 11.7-21.9 16.9-33.3 2.68-5.76 5.61-11.4 8.61-17 4.28-7.99 8.29-16.1 12.3-24.2 0.618-1.25 1.24-2.5 1.86-3.74 0.822-1.65 1.64-3.31 2.46-4.97 2.15-4.18 4.46-8.27 6.74-12.4zm22 41c-0.519 1.04-1.04 2.08-1.57 3.15-0.335 0.67-0.67 1.34-1.02 2.03-0.738 1.48-1.48 2.95-2.21 4.43-1.52 3.05-3.04 6.09-4.6 9.12-2.65 5.17-5.09 10.4-7.48 15.7-0.484 1.05-0.484 1.05-0.979 2.12-1.94 4.1-1.94 4.1-1.15 8.44h39c0.495-0.99 0.495-0.99 1-2-0.688-2.03-0.688-2.03-1.88-4.38-0.461-0.977-0.923-1.95-1.4-2.96-0.269-0.567-0.538-1.13-0.815-1.72-1.85-3.96-3.62-7.96-5.41-11.9-0.782-1.74-1.56-3.47-2.35-5.21-1.27-2.82-2.53-5.65-3.77-8.49-0.434-0.986-0.869-1.97-1.32-2.99-0.36-0.829-0.719-1.66-1.09-2.51-0.845-1.98-0.845-1.98-2.97-2.8z" fill="#FAFBFD"/>
<path transform="translate(800,114)" d="m0 0c7.19-0.152 14.4-0.257 21.6-0.33 2.45-0.0302 4.89-0.0711 7.34-0.123 3.52-0.0727 7.03-0.107 10.5-0.133 1.09-0.031 2.19-0.0619 3.32-0.0938 2.87-0.00127 5.43 0.052 8.23 0.68 2.54 2.81 2.54 2.81 4 6 0.928 1.21 1.87 2.41 2.85 3.59 0.518 0.631 1.04 1.26 1.57 1.91 0.814 0.986 0.814 0.986 1.65 1.99 1.15 1.41 2.3 2.82 3.45 4.23 0.578 0.708 1.16 1.42 1.75 2.15 2.7 3.32 5.38 6.65 8.04 10 0.474 0.588 0.948 1.18 1.44 1.78 3.25 4.11 3.25 4.11 3.25 6.34h2v2c3.59-0.234 4.79-0.779 7.29-3.45 1.16-1.6 1.16-1.6 2.34-3.24 0.874-1.19 1.75-2.38 2.62-3.56 0.45-0.617 0.9-1.23 1.36-1.87 2.27-3.08 4.64-6.07 7.01-9.07 0.458-0.582 0.917-1.16 1.39-1.76 13.4-17 13.4-17 16-17.3 1.22 0.00666 1.22 0.00666 2.46 0.0135 0.921 1.51e-4 1.84 3.02e-4 2.79 4.58e-4 0.996 0.0103 1.99 0.0206 3.02 0.0313 1.02 0.00283 2.04 0.00566 3.09 0.00858 3.26 0.0112 6.52 0.0363 9.78 0.0617 2.21 0.01 4.41 0.0192 6.62 0.0273 5.42 0.0221 10.8 0.0556 16.3 0.0977-1.01 6.47-2.32 9.45-7 14-1.56 1.86-3.1 3.73-4.63 5.61-0.451 0.459-0.902 0.918-1.37 1.39h-2c-0.241 0.713-0.482 1.43-0.73 2.16-1.46 3.26-3.28 5.55-5.58 8.28l-2.44 2.91-2.25 2.65c-0.918 1.1-1.83 2.21-2.75 3.31-1.11 1.33-1.11 1.33-2.25 2.69-0.784 0.949-1.57 1.9-2.38 2.88-1.89 2.28-3.84 4.48-5.81 6.69-4.91 5.57-9.33 11.5-13.8 17.4 3.92 5.31 7.93 10.5 12.3 15.5 3.89 4.44 7.48 9.1 11 13.8 2.67 3.52 5.55 6.61 8.69 9.71 1.01 1.27 1.99 2.56 2.94 3.88 2.48 3.4 5.13 6.56 7.96 9.68 1.1 1.45 1.1 1.45 1.1 3.45h2c0.99 2.48 0.99 2.48 2 5h2c1.88 2.49 3.54 5.1 5.25 7.71 1.62 2.55 1.62 2.55 4.75 3.29v3c-7.35 0.213-14.7 0.315-22 0.342-2.5 0.022-4.99 0.0688-7.49 0.142-21.9 0.611-21.9 0.611-27.4-4.41-2.51-2.88-4.41-5.99-6.16-9.37-1.19-2.23-2.67-4.14-4.25-6.11-0.906-1.22-1.81-2.43-2.71-3.65-0.998-1.34-2-2.67-3-4.01-0.487-0.651-0.974-1.3-1.48-1.97-2.35-3.14-4.71-6.27-7.09-9.39-0.797-1.05-1.59-2.1-2.41-3.18-1.74-2.44-1.74-2.44-3.96-3.38v2h-2c-0.262 0.559-0.523 1.12-0.793 1.7-3.49 6.66-8.36 12.6-13.2 18.3-8.78 10.5-8.78 10.5-16 22h-51c-0.33-1.32-0.66-2.64-1-4 2.08-2.34 2.08-2.34 5-5 1.97-2.16 3.86-4.4 5.75-6.62 0.528-0.619 1.06-1.24 1.6-1.88 3.78-4.44 7.49-8.93 11.2-13.5 2.55-3.13 5.12-6.25 7.69-9.36 11.1-13.4 11.1-13.4 21.6-27.2 1.23-1.5 1.23-1.5 3.23-2.5-0.36-5.87-2.85-8.88-6.5-13.2-5.39-6.48-5.39-6.48-6.5-9.81-0.99-0.33-1.98-0.66-3-1-1.38-1.57-1.38-1.57-2.79-3.57-3.05-4.23-6.28-8.27-9.59-12.3-1.15-1.41-2.3-2.82-3.45-4.23-0.548-0.672-1.1-1.34-1.66-2.04-4.06-4.97-8.11-9.94-11.9-15.1-0.614-0.828-0.614-0.828-1.24-1.67-1.16-1.57-2.31-3.14-3.46-4.72-1.66-2.44-1.66-2.44-3.88-3.37v-3z" fill="#F9FAFC"/>
<path transform="translate(536,328)" d="m0 0c3.03 3.4 3.03 3.4 2.88 6.62-0.875 2.38-0.875 2.38-3.88 4.38-0.598-0.701-1.2-1.4-1.81-2.12-7.57-7.57-16.7-10-27.1-10.1-9.75 0.102-16.6 2.65-25.1 7.19-0.736 0.344-1.47 0.688-2.23 1.04-2.35 1.27-2.73 2.53-3.77 4.96-0.474 0.784-0.949 1.57-1.44 2.38-4.8 8.06-5.46 14.3-4.56 23.6 1.55 5.57 4.27 8.69 9 12 0.899 0.961 0.899 0.961 1.82 1.94 2.42 2.28 4.59 3.41 7.62 4.75 0.927 0.416 1.85 0.833 2.81 1.26 10.4 3.97 22.4 2.93 32.8-0.59 3.92-1.8 6.98-4.16 10.1-7.07 0.596-0.427 1.19-0.853 1.8-1.29 1.49 0.495 1.49 0.495 3 1 0.495 2.97 0.495 2.97 1 6-11.1 9.34-23.6 12.5-38.1 11.9-14.2-1.37-24.3-7.06-34.4-16.8-1.77-2.35-2.17-4.14-2.53-7.03h-2c-3.31-8.68-3.46-19.3-0.0469-28 1.92-3.7 4.34-6.87 7.05-10 0.742-0.866 1.49-1.73 2.25-2.62 17.5-15.1 45.8-17.3 64.8-3.38z" fill="#F4F5F7"/>
<path transform="translate(646 348)" d="m0 0c1.26 1.43 1.26 1.43 1.26 3.43 0.99 0.33 1.98 0.66 3 1 2.25 4.13 2.48 8.4 3 13 0.495 1.49 0.495 1.49 1 3h-55c0.561 8.75 0.561 8.75 5 15 7.84 5.38 16.4 7.03 25.7 5.38 6.9-1.84 12.3-5.47 16.3-11.4 1.94 0.812 1.94 0.812 4 2 0.33 0.99 0.66 1.98 1 3-3.18 5.84-8.92 9.71-15 12-10.1 2.54-19.5 2.45-29.3-1.25-8.03-5.23-14.2-11.3-16.7-20.8-0.769-7.05 1.38-13 4.69-19.1 6.55-8.15 13.6-12.1 23.6-14.8 11.1-0.375 19.2 2.04 27.4 9.44zm-36.7 0.434c-1.27 0.835-1.27 0.835-2.56 1.69-3.11 2.95-5.08 6.24-6.44 10.3 0.33 0.66 0.66 1.32 1 2h44c-1.38-7.27-1.38-7.27-6.08-12.7-5.7-3.63-10.7-4.82-17.3-4.85-0.678-0.00242-1.36-0.00483-2.05-0.00732-4.34 0.145-7.07 1.05-10.6 3.57z" fill="#F3F4F6"/>
<path transform="translate(926 343)" d="m0 0c5.81 4.64 10.4 10.4 12.1 17.7v7c-17.8 0.33-35.6 0.66-54 1-1.38 4.55-1.38 4.55-0.223 6.95 0.383 0.574 0.766 1.15 1.16 1.74 2.06 3.31 2.06 3.31 2.06 5.31 0.866 0.268 1.73 0.536 2.62 0.812 3.38 1.19 3.38 1.19 6.44 2.75 7.04 3.45 14.1 3.23 21.5 0.938 5.71-2.19 8.94-5.58 12.4-10.5 1.65 0.33 3.3 0.66 5 1-0.0661 3.3-0.209 5.97-2.27 8.66-7.42 6.81-16.8 9.46-26.7 9.34-10.2-0.905-17.4-4-24.7-11.2-1.46-1.93-1.94-3.41-2.35-5.78h-2c-2.82-9.66-2.44-17.7 2.41-26.7 3.82-5.59 10.1-11.2 16.8-12.9 9.82-1.54 21.3-1.87 29.8 3.84zm-36.9 8.71v2h-2c-1.47 3.91-1.47 3.91-2 8h45c-1.3-7.22-1.3-7.22-6.06-12.5-11.6-6.62-24.8-7.1-34.9 2.46z" fill="#F1F2F4"/>
<path transform="translate(723,349)" d="m0 0c0.33-2.97 0.66-5.94 1-9 1.67-0.0427 3.33-0.0406 5 0 1 1 1 1 1.12 3.13-0.00222 0.939-0.00444 1.88-0.00673 2.85-7.55e-5 1.06-1.51e-4 2.12-2.29e-4 3.22-0.00516 1.15-0.0103 2.31-0.0156 3.5-0.00141 1.17-0.00283 2.35-0.00429 3.56-0.00562 3.77-0.0182 7.54-0.0309 11.3-0.00501 2.55-0.00958 5.1-0.0137 7.65-0.0111 6.26-0.0278 12.5-0.0488 18.8h-6c-0.495-3.96-0.495-3.96-1-8-0.485 0.398-0.969 0.797-1.47 1.21-7.95 6.28-16 9.48-26.3 8.54-10.6-1.64-17.3-5.62-24.3-13.8-0.459-0.522-0.918-1.04-1.39-1.58-4.05-5.63-3.44-12.8-2.61-19.4 2.59-8.62 6.67-14.3 14.6-18.7 15.7-7.36 28.7-4.07 41.4 6.69zm-33-3c-0.976 0.402-0.976 0.402-1.97 0.812-6.3 2.83-10.1 6.68-12.8 13.1-2.07 6.24-1.51 11.8 0.707 17.9 3.11 6.03 8.94 8.98 15.1 11.1 7.58 2.08 14.9 1.15 22-2 5.51-3.6 9.3-7.52 11-14 1.26-8.26-0.0779-13.8-4.93-20.6-4.03-4.58-8.86-7.89-15.1-8.36-5.26-0.251-9.07-0.0522-14 2z" fill="#FAFBFD"/>
<path transform="translate(1313,342)" d="m0 0c0.763 0.289 1.53 0.577 2.31 0.875 2.38 1.58 3.26 3.67 4.69 6.12 0.825 0.763 1.65 1.53 2.5 2.31 5.68 6.1 6 12.6 5.79 20.6-0.608 6.51-3.48 11.6-8.29 16.1-9.9 7.4-20 8.11-32 7-6.86-1.5-12.3-4.87-17-10-0.581-0.614-1.16-1.23-1.76-1.86-4.73-5.87-4.95-11.3-4.64-18.7 0.485-4.22 1.26-6.82 3.4-10.5 0.65-1.21 0.65-1.21 1.31-2.45 4.99-7.52 14.2-11.1 22.6-13.3 7.62-0.61 14.2 0.744 21.1 3.75zm-27 5c-1.01 0.392-2.02 0.784-3.06 1.19-4.95 3.06-7.83 7.49-10.3 12.7-1.13 5.63-1.36 10.9 0.438 16.4 4.77 6.77 10.9 10.6 18.9 12.8 8.11 1.09 14.1-0.995 21.2-4.62 4.67-3.95 7.28-8.2 8.3-14.3 0.337-7.27-1.04-13.3-5.48-19.1-2.47-2.19-5-3.63-8-5-0.675-0.317-1.35-0.634-2.05-0.961-7.32-3.09-12.8-2.55-20 0.961z" fill="#F6F7F9"/>
<path transform="translate(1082 345)" d="m0 0c0.557 0.701 1.11 1.4 1.69 2.12 1.27 1.45 1.27 1.45 2.56 2.94 6.5 8.17 7.13 14.8 6.44 25.1-1.55 6.88-6.18 12-11.9 15.8-8.96 5.52-20.8 5.97-31 3.56-2.22-0.932-4.11-1.98-6.11-3.31-0.692-0.424-1.38-0.848-2.1-1.29-6.05-4.06-10.8-9.27-12.6-16.5-0.657-5.51-0.407-10 1.66-15.2 0.211-0.634 0.423-1.27 0.641-1.92 2.95-7.46 9.66-11.7 16.6-15.2 11.1-4.42 24.4-3.76 34 4.01zm-29.3 1.12c-0.637 0.258-1.27 0.516-1.93 0.781-6.56 2.87-10.7 6.9-13.4 13.5-1.21 7.11-1.82 13.5 2.38 19.7 4.63 6.13 12.2 9.27 19.7 10.4 8.12 0.263 14.9-2.37 21.3-7.42 4.97-6.58 5.76-11.9 5-20-1.23-4.82-2.81-8.74-6.25-12.4-0.908-0.536-1.82-1.07-2.75-1.62-0.864-0.536-0.864-0.536-1.75-1.08-7.01-3.99-14.8-5.34-22.3-1.92z" fill="#F0F1F3"/>
<path transform="translate(1386 340)" d="m0 0c4.93 2.92 8.65 8.15 10.1 13.7 0.577 3.83 0.559 7.61 0.533 11.5-0.00141 0.814-0.00283 1.63-0.00429 2.47-0.00558 2.59-0.0181 5.18-0.0309 7.76-0.00502 1.76-0.00958 3.52-0.0137 5.28-0.011 4.3-0.0282 8.61-0.0488 12.9h-5c-1.7-5.84-2.14-11.2-2.06-17.3 0.368-14.1 0.368-14.1-2.94-27.7-1.77-1.42-1.77-1.42-4-2-0.763-0.371-1.53-0.743-2.31-1.12-5.26-1.71-9.76-1.27-14.7 1.12-0.99 0.413-1.98 0.825-3 1.25-5.04 2.94-8.42 7.57-11 12.8-0.318 2.64-0.487 5.06-0.512 7.71-0.0269 1.09-0.0269 1.09-0.0544 2.2-0.0539 2.3-0.0879 4.6-0.121 6.91-0.0332 1.57-0.0677 3.13-0.104 4.7-0.0847 3.83-0.152 7.66-0.209 11.5h-6c-1.58-3.16-1.14-6.55-1.13-10-9.57e-4 -0.807-0.00191-1.61-0.0029-2.45-6.82e-4 -1.72 0.00117-3.44 0.00534-5.15 0.00526-2.58 9.93e-5 -5.16-0.00635-7.74-0.00348-9.6 0.271-19.1 1.14-28.6 1.67-0.0427 3.33-0.0406 5 0 1 1 1 1 1.06 4.56-0.0206 1.13-0.0412 2.27-0.0625 3.44 2.97-1.46 5.89-2.94 8.75-4.61 8.53-4.81 17.3-6.81 26.7-2.96z" fill="#FBFCFE"/>
<path transform="translate(1133,340)" d="m0 0h7c-0.33 0.66-0.66 1.32-1 2-0.0788 4.59 0.0977 9.17 0.242 13.8 0.0695 2.27 0.124 4.55 0.178 6.82 0.2 7.31 0.413 14.4 2.58 21.4 2.07 1.57 2.07 1.57 5 2 1.42 0.539 2.83 1.08 4.25 1.62 7.29 2.36 13.1 2.23 19.9-1.26 2.56-1.91 4.07-3.67 5.82-6.36 0.399-2.95 0.581-5.53 0.574-8.48 0.0212-1.21 0.0212-1.21 0.0429-2.45 0.0418-2.57 0.0571-5.13 0.0704-7.7 0.0291-2.57 0.0636-5.15 0.102-7.72 0.0224-1.6 0.0383-3.2 0.0468-4.8 0.0312-3.21 0.141-5.79 1.16-8.85h8c-0.33 0.66-0.66 1.32-1 2-0.0737 2.05-0.0835 4.1-0.0625 6.15 0.0116 1.88 0.0116 1.88 0.0234 3.79 0.0257 2.63 0.0517 5.25 0.0781 7.88 0.137 22.4 0.137 22.4-5.12 28.5-6.57 5.89-14.2 7.96-22.9 7.72-10-1.08-15.8-4.33-22.4-11.9-5.89-7.41-3.74-22.3-3.76-31.4-0.00459-1.02-0.00918-2.04-0.0139-3.09 0.00201-0.956 0.00403-1.91 0.0061-2.9 0.00113-0.858 0.00226-1.72 0.00342-2.6 0.129-2.1 0.129-2.1 1.13-4.1z" fill="#EEEFF1"/>
<path transform="translate(808,340)" d="m0 0h8c0.254 0.846 0.508 1.69 0.77 2.56 1.32 3.69 3.03 7.02 4.92 10.4 2.17 3.97 4.31 7.93 6.25 12 0.305 0.637 0.611 1.27 0.925 1.93 0.84 1.77 1.67 3.54 2.49 5.32 1.69 2.81 2.59 3.69 5.64 4.73 2.55-3.16 4.29-6.42 6.06-10.1 3.02-6.16 6.17-12.2 9.38-18.3 0.674-1.28 0.674-1.28 1.36-2.58 1.07-2.02 2.13-4.03 3.2-6.05h6c1 3 1 3-0.195 5.91-0.633 1.24-1.28 2.48-1.93 3.71-0.35 0.68-0.701 1.36-1.06 2.06-0.802 1.55-1.61 3.1-2.42 4.65-1.56 2.98-3.11 5.97-4.65 8.97-9.68 18.7-9.68 18.7-14.7 27.7h-3c-1.54-2.1-1.54-2.1-3.19-5.06-0.606-1.08-1.21-2.17-1.84-3.29-0.661-1.22-1.32-2.43-1.98-3.65-0.53-0.978-0.53-0.978-1.07-1.98-2.34-4.33-4.65-8.67-6.93-13-0.406-0.743-0.812-1.49-1.23-2.25-0.77-1.75-0.77-1.75-0.77-4.75h-2c-1.34-2.6-2.67-5.21-4-7.81-0.382-0.738-0.763-1.48-1.16-2.24-0.361-0.712-0.722-1.42-1.09-2.16-0.335-0.655-0.67-1.31-1.02-1.98-0.734-1.81-0.734-1.81-0.734-4.81z" fill="#F4F5F7"/>
<path transform="translate(1011 340)" d="m0 0c2.48 1.78 3.45 2.89 4.44 5.75h2v3c-3.92 0.383-6.2 0.0696-9.44-2.06-2.83-1.75-3.63-1.94-7.19-2-4.09 1.29-5.89 2.57-8.38 6.06-0.571 3.08-0.571 3.08 1 6 3.13 2.72 6.8 4.45 10.5 6.18 5.73 2.66 10.1 5.31 13.5 10.8 1.58 5.01 1.78 9.4-0.562 14.2-4.27 4.93-8.81 7.34-15.3 7.84-7.5-0.112-13.1-2.73-19.1-7.03 1.28-1.71 2.62-3.37 4-5h2c0.33 0.66 0.66 1.32 1 2 3.75 1.9 6.95 2.3 11.1 2.31 1.03 0.0168 2.07 0.0335 3.13 0.0508 3.1-0.411 3.78-1.05 5.74-3.36h2c-0.124-1.86-0.124-1.86-0.25-3.75-0.0696-1.04-0.0696-1.04-0.141-2.11-0.862-3.03-2.17-4.15-4.61-6.14-2.42-1.32-4.84-2.55-7.31-3.75-11.7-6.04-11.7-6.04-14.7-12.2-0.632-4.03 0.0233-7.24 2-10.8 6.1-8.08 15.5-9.15 24.6-5.95z" fill="#F3F4F6"/>
<path transform="translate(1441 341)" d="m0 0c3.03 1.72 3.29 2.1 4.38 5.62v2.75c-3.8-0.38-6.62-0.793-10-2.62-3.88-1.78-5.93-1.58-10-0.375-3 2.62-3.92 4.02-4.25 8 1.87 4.5 5.06 5.8 9.25 8 1.61 0.894 3.21 1.79 4.81 2.69 0.728 0.396 1.46 0.791 2.21 1.2 1.71 0.959 3.35 2.03 4.98 3.11v2h2c2.39 4.89 3.71 8.44 3 14-2.03 4.14-4.51 7.17-8.69 9.3-7.48 2.26-15.2 1.67-22.2-1.8-1.39-0.805-2.77-1.63-4.12-2.5 0-3 0-3 1.38-4.69 1.62-1.31 1.62-1.31 3.62-1.31 0.433 0.454 0.866 0.908 1.31 1.38 3.08 2.96 5.98 3.57 10.2 3.88 3.37-0.24 5.55-0.649 8.5-2.25 2.33-3.49 2.33-4.9 2-9-0.995-3.31-2-4-5.05-5.78-1.23-0.585-2.46-1.16-3.7-1.72-13.9-6.46-13.9-6.46-17.2-13.5-0.189-4.72 0.538-8.94 3-13 7.42-5.52 15.9-7.18 24.6-3.38z" fill="#FAFBFD"/>
<path transform="translate(1212,319)" d="m0 0h8c-0.33 0.66-0.66 1.32-1 2-0.0459 1.94-0.0459 1.94 0.121 4.13 0.0483 0.806 0.0967 1.61 0.146 2.44 0.0561 0.842 0.112 1.68 0.17 2.55 0.0783 1.27 0.0783 1.27 0.158 2.57 0.13 2.1 0.266 4.2 0.404 6.3 1.07 0.0909 1.07 0.0909 2.15 0.184 0.919 0.0838 1.84 0.168 2.79 0.254 1.37 0.122 1.37 0.122 2.78 0.246 2.29 0.316 2.29 0.316 3.29 1.32 0.0406 1.67 0.0427 3.33 0 5-0.71 0.0606-1.42 0.121-2.15 0.184-1.38 0.126-1.38 0.126-2.79 0.254-0.917 0.0812-1.83 0.162-2.78 0.246-2.25 0.0769-2.25 0.0769-3.29 1.32-0.122 1.44-0.178 2.89-0.205 4.34-0.0199 0.921-0.0399 1.84-0.0604 2.79-0.0251 1.5-0.0251 1.5-0.0506 3.03-0.0208 1.02-0.0416 2.04-0.063 3.09-0.0656 3.27-0.124 6.54-0.183 9.81-0.0432 2.21-0.0868 4.42-0.131 6.63-0.107 5.43-0.209 10.9-0.307 16.3h-6c-1.18-2.35-1.16-3.83-1.21-6.45-0.0199-0.921-0.0399-1.84-0.0604-2.79-0.0167-0.996-0.0334-1.99-0.0506-3.02-0.0208-1.02-0.0416-2.04-0.063-3.09-0.0655-3.26-0.124-6.52-0.183-9.78-0.0432-2.21-0.0868-4.41-0.131-6.62-0.107-5.42-0.208-10.8-0.307-16.3h-10c-1-4-1-4 0-6h11v-21z" fill="#F6F7F9"/>
<path transform="translate(891 344)" d="m0 0c1.02 0.433 1.02 0.433 2.06 0.875l-4 4.39c-0.329 0.53-0.657 1.06-0.996 1.61 0.33 0.99 0.66 1.98 1 3h-2c-0.33 2.31-0.66 4.62-1 7h-3c1.4 3.55 1.4 3.55 3 7-0.99 0.66-1.98 1.32-3 2 0.609 4.14 2.11 7.29 4 11v2c0.866 0.268 1.73 0.536 2.62 0.812 3.38 1.19 3.38 1.19 6.44 2.75 7.04 3.45 14.1 3.23 21.5 0.938 5.71-2.19 8.94-5.58 12.4-10.5 1.65 0.33 3.3 0.66 5 1-0.0661 3.3-0.209 5.97-2.27 8.66-7.42 6.81-16.8 9.46-26.7 9.34-10.2-0.905-17.4-4-24.7-11.2-1.46-1.93-1.94-3.41-2.35-5.78h-2c-2.84-9.71-2.43-17.8 2.48-26.7 2.89-4.31 5.98-8.39 11.5-8.15z" fill="#F8F9FB"/>
<path transform="translate(758,319)" d="m0 0h7c-0.33 0.66-0.66 1.32-1 2-0.0459 1.94-0.0459 1.94 0.121 4.13 0.0483 0.806 0.0967 1.61 0.146 2.44 0.0561 0.842 0.112 1.68 0.17 2.55 0.0783 1.27 0.0783 1.27 0.158 2.57 0.13 2.1 0.266 4.2 0.404 6.3 4.29 0.33 8.58 0.66 13 1-0.66 2.31-1.32 4.62-2 7h-11c-0.33 15.5-0.66 31-1 47h-5c-2.11-5.18-2.25-9.6-2.16-15.1 0.0052-0.855 0.0104-1.71 0.0158-2.59 0.0177-2.71 0.0489-5.43 0.0819-8.14 0.0276-2.73 0.0523-5.46 0.0712-8.19 0.0123-1.7 0.0299-3.39 0.0533-5.09 0.0169-1.97-0.0173-3.94-0.062-5.91-1.88-1.88-4.57-1.41-7.09-1.62-1.91-0.379-1.91-0.379-3.91-2.38 0.375-2.62 0.375-2.62 1-5h10c-0.0116-1.26-0.0232-2.53-0.0352-3.83-0.00938-1.66-0.0185-3.32-0.0273-4.98-0.00838-0.833-0.0168-1.67-0.0254-2.53-0.00322-0.802-0.00645-1.6-0.00977-2.43-0.00524-0.738-0.0105-1.48-0.0159-2.24 0.114-1.99 0.114-1.99 1.11-4.99z" fill="#FBFCFE"/>
<path transform="translate(584,340)" d="m0 0c-0.33 1.65-0.66 3.3-1 5-1.2-0.0825-2.39-0.165-3.62-0.25-5.29-0.00936-8.14 2.42-12.1 5.69-4.6 5.75-4.36 13.8-4.57 20.8-0.0208 0.656-0.0416 1.31-0.063 1.99-0.0647 2.07-0.124 4.14-0.183 6.2-0.0433 1.41-0.0869 2.83-0.131 4.24-0.106 3.44-0.208 6.88-0.307 10.3-2.88 0.125-2.88 0.125-6 0-2-2-2-2-2.25-4.08 0.00143-0.857 0.00285-1.71 0.00432-2.6-0.00308-0.971-0.00615-1.94-0.00932-2.94 0.00719-1.05 0.0144-2.1 0.0218-3.19 4.58e-4 -1.08 9.16e-4 -2.16 0.00139-3.27 0.00303-2.28 0.0109-4.56 0.0233-6.85 0.0182-3.5 0.0205-7 0.0203-10.5 0.00492-2.21 0.0107-4.43 0.0176-6.64 0.00111-1.05 0.00223-2.1 0.00337-3.18 0.00638-0.974 0.0128-1.95 0.0193-2.95 0.00381-0.858 0.00762-1.72 0.0116-2.6 0.134-2.21 0.134-2.21 1.13-5.21h8c-0.33 0.66-0.66 1.32-1 2 0.99 1.49 0.99 1.49 2 3 2.18-0.991 2.18-0.991 4.38-3 4.38-3.34 10.5-4.58 15.6-2z" fill="#F6F7F9"/>
<path transform="translate(1109,319)" d="m0 0h7c-0.33 0.66-0.66 1.32-1 2-0.0921 2.31-0.117 4.62-0.114 6.93-1.46e-4 0.712-2.92e-4 1.42-4.43e-4 2.16 6.98e-4 2.36 0.00848 4.72 0.0163 7.08 0.00186 1.63 0.00329 3.27 0.00429 4.9 0.00382 4.3 0.0136 8.61 0.0247 12.9 0.0102 4.39 0.0148 8.78 0.0198 13.2 0.0107 8.62 0.0278 17.2 0.0488 25.9-2.38 0.125-2.38 0.125-5 0-2-2-2-2-2.25-4.88 0.00143-1.23 0.00285-2.46 0.00432-3.73-0.0019-0.678-0.0038-1.36-0.00575-2.06-0.00371-2.25 7e-3 -4.49 0.0182-6.74 0.00119-1.56 0.00164-3.12 0.00139-4.68 0.00157-3.27 0.00986-6.54 0.0233-9.81 0.017-4.19 0.0208-8.39 0.0201-12.6 2.72e-4 -3.22 0.00576-6.44 0.013-9.66 0.00318-1.55 0.00515-3.09 0.00589-4.64 0.00217-2.16 0.0109-4.32 0.0216-6.49 0.00381-1.23 0.00762-2.46 0.0116-3.73 0.134-3 0.134-3 1.13-6z" fill="#F2F3F5"/>
<path transform="translate(789,340)" d="m0 0c1.67-0.0427 3.33-0.0406 5 0 1 1 1 1 1.12 3.13-0.00222 0.939-0.00444 1.88-0.00673 2.85-7.55e-5 1.06-1.51e-4 2.12-2.29e-4 3.22-0.00516 1.15-0.0103 2.31-0.0156 3.5-0.00141 1.17-0.00283 2.35-0.00429 3.56-0.00562 3.77-0.0182 7.54-0.0309 11.3-0.00501 2.55-0.00958 5.1-0.0137 7.65-0.0111 6.26-0.0278 12.5-0.0488 18.8h-5c-4.71-9.42-2.11-25.4-2.12-35.9-0.00259-0.723-0.00518-1.45-0.00784-2.19-0.00587-2.08-0.00426-4.16 3.05e-5 -6.24 0.00113-1.22 0.00226-2.43 0.00342-3.69 0.129-3.01 0.129-3.01 1.13-6.01z" fill="#F3F4F6"/>
<path transform="translate(1244,340)" d="m0 0c1.67-0.0427 3.33-0.0406 5 0 1 1 1 1 1.12 3.13-0.00222 0.939-0.00444 1.88-0.00673 2.85-7.55e-5 1.06-1.51e-4 2.12-2.29e-4 3.22-0.00516 1.15-0.0103 2.31-0.0156 3.5-0.00141 1.17-0.00283 2.35-0.00429 3.56-0.00562 3.77-0.0182 7.54-0.0309 11.3-0.00501 2.55-0.00958 5.1-0.0137 7.65-0.0111 6.26-0.0278 12.5-0.0488 18.8h-6c-0.765-12.4-1.11-24.7-1.12-37.1-0.0025-0.668-5e-3 -1.34-0.00757-2.02-0.00588-1.91-0.00323-3.82-2.44e-4 -5.74 0.00113-1.11 0.00226-2.21 0.00342-3.36 0.129-2.76 0.129-2.76 1.13-5.76z" fill="#F3F3F5"/>
<path transform="translate(1388,343)" d="m0 0c3.44 1.15 3.8 1.77 5.62 4.75 0.425 0.675 0.851 1.35 1.29 2.05 2.48 5.02 2.22 10.3 2.18 15.8-0.00141 0.814-0.00283 1.63-0.00429 2.47-0.00558 2.59-0.0181 5.18-0.0309 7.76-0.00502 1.76-0.00958 3.52-0.0137 5.28-0.011 4.3-0.0282 8.61-0.0488 12.9h-5c-1.7-5.84-2.14-11.2-2.06-17.3 0.327-14.1 0.327-14.1-2.94-27.7-0.99-0.33-1.98-0.66-3-1 1.75-3.88 1.75-3.88 4-5z" fill="#FBFCFE"/>
<path transform="translate(729,341)" d="m0 0h1v53h-6c-0.33-2.64-0.66-5.28-1-8h-2c0.33-1.32 0.66-2.64 1-4h-2c0.217-0.51 0.433-1.02 0.656-1.55 2.44-6.38 3.31-12.6 2.34-19.5-0.969-1.68-1.97-3.35-3-5 0.312-2.81 0.312-2.81 1-5h3c0.33-2.64 0.66-5.28 1-8h1v8h2c0.33-3.3 0.66-6.6 1-10z" fill="#FAFBFD"/>
<path transform="translate(1133,340)" d="m0 0h7c-0.33 0.66-0.66 1.32-1 2-0.0788 4.59 0.0977 9.17 0.242 13.8 0.0695 2.27 0.124 4.55 0.178 6.82 0.249 10.9 0.249 10.9 2.58 21.4 0.99 0.33 1.98 0.66 3 1-0.33 0.66-0.66 1.32-1 2-0.352 1.33-0.688 2.66-1 4-1.11-0.886-2.21-1.78-3.31-2.69-0.615-0.499-1.23-0.998-1.86-1.51-7.93-7.83-5.86-20.6-5.94-31-0.00411-1.04-0.00822-2.07-0.0125-3.14-0.00475-1.02-0.00951-2.04-0.0144-3.09 0.00218-0.955 0.00435-1.91 0.00659-2.9 0.00113-0.858 0.00226-1.72 0.00342-2.6 0.129-2.1 0.129-2.1 1.13-4.1z" fill="#FBFCFE"/>
<path transform="translate(1043,344)" d="m0 0c1.32 0.33 2.64 0.66 4 1-0.66 0.66-1.32 1.32-2 2-0.66-0.99-1.32-1.98-2-3zm0 1c-1.2 2.49-2.45 4.68-4 7 0.578-0.681 1.15-1.36 1.75-2.06 0.743-0.639 1.48-1.28 2.25-1.94 2.25 0.25 2.25 0.25 4 1l-2 1c-0.309 0.66-0.619 1.32-0.938 2-1.06 2-1.06 2-4.06 3-2.44 5.73-2.7 12.9-2 19 1.25 3.34 1.25 3.34 3 6 0.667 1.33 1.33 2.67 2 4h2c-0.33 1.32-0.66 2.64-1 4h2v2c-5.36-0.613-8.14-2.84-11.6-6.88-4.35-5.8-5.68-10.9-5.39-18.1 1.23-6.59 5.48-20 14-20z" fill="#F9FAFC"/>
<path transform="translate(535,377)" d="m0 0c0.99 0.33 1.98 0.66 3 1 0.495 2.97 0.495 2.97 1 6-9.93 8.32-21.5 12.5-34.6 11.8-1.13-0.268-2.27-0.536-3.44-0.812-1.51-0.333-1.51-0.333-3.05-0.672-6.26-1.44-6.26-1.44-8.95-2.33-0.33-0.66-0.66-1.32-1-2h6v-2c1.22 0.0464 2.44 0.0928 3.7 0.141 13.5 0.362 25-0.277 35.5-9.85 0.596-0.427 1.19-0.853 1.8-1.29z" fill="#EEEFF1"/>
<path transform="translate(930,377)" d="m0 0c2.48 0.495 2.48 0.495 5 1-0.0661 3.3-0.209 5.97-2.27 8.66-7.42 6.81-16.8 9.46-26.7 9.34-7.13-0.633-12.8-2.49-19-6v-6c1.49 0.99 1.49 0.99 3 2h4c1.6 0.456 3.18 0.96 4.75 1.5 8 2.44 13.9 1.9 21.6-1.08 4.21-2.28 6.89-5.56 9.63-9.42z" fill="#EAEAEC"/>
<path transform="translate(646,377)" d="m0 0c1.94 0.812 1.94 0.812 4 2 0.495 1.49 0.495 1.49 1 3-3.18 5.84-8.92 9.71-15 12-10.2 2.55-19.7 2.57-29.5-1.44-2.27-1.42-4.42-2.88-6.5-4.56 0.33-0.99 0.66-1.98 1-3 1.32 0.99 2.64 1.98 4 3-0.33-0.66-0.66-1.32-1-2 4.01 0.523 7.87 1.2 11.8 2.12 9.35 1.85 17.2 0.195 25.2-5.12 1.99-1.9 3.41-3.73 5-6z" fill="#F3F4F6"/>
<path transform="translate(723,349)" d="m0 0c0.33-2.97 0.66-5.94 1-9h5c0.027 1.46 0.0464 2.92 0.0625 4.38 0.0116 0.812 0.0232 1.62 0.0352 2.46-0.0977 2.16-0.0977 2.16-1.1 4.16-3.06 0.625-3.06 0.625-6 1-0.33 0.99-0.66 1.98-1 3-0.671-0.597-0.671-0.597-1.36-1.21-7.03-6.16-12.1-9.08-21.7-8.95-3.72 0.299-6.88 1.54-10.1 3.35-2.35 1.02-3.51 0.658-5.88-0.188v-2h-5c15.3-12.3 32.1-8.75 46 3z" fill="#F2F3F5"/>
<path transform="translate(602,350)" d="m0 0c1.19 1.69 1.19 1.69 2 4-1.31 2.44-1.31 2.44-3 5-0.707 2.69-0.707 2.69-1 5 0.99 0.33 1.98 0.66 3 1h-3c0.33 0.99 0.66 1.98 1 3h-2c0.318 7.15 1.74 11.5 6.75 16.9 0.413 0.371 0.825 0.743 1.25 1.12-0.99 0.495-0.99 0.495-2 1v3c-0.598-0.66-1.2-1.32-1.81-2-2.06-2.34-2.06-2.34-5.19-2-5.07-5.07-7.6-10.3-8.38-17.4 0.636-6.04 2.19-12 6.38-16.6l2 1c0.33-0.66 0.66-1.32 1-2 0.99-0.33 1.98-0.66 3-1z" fill="#FBFCFE"/>
<path transform="translate(883,361)" d="m0 0c23.3 0.495 23.3 0.495 47 1 0.495 2.48 0.495 2.48 1 5-1.54 1.54-2.96 1.15-5.1 1.18-0.871 0.0128-1.74 0.0257-2.64 0.0389-0.948 0.00739-1.9 0.0148-2.87 0.0224-0.968 0.00807-1.94 0.0161-2.93 0.0245-2.05 0.0139-4.11 0.0246-6.16 0.0324-3.15 0.0172-6.29 0.0611-9.44 0.105-1.99 0.0101-3.98 0.0186-5.97 0.0254-1.42 0.0263-1.42 0.0263-2.86 0.0531-6.5-0.0217-6.5-0.0217-9.14-2.32-0.882-2.16-0.882-2.16-0.882-5.16z" fill="#E2E3E5"/>
<path transform="translate(1316,348)" d="m0 0c1.71 1.63 3.38 3.29 5 5-0.33-0.99-0.66-1.98-1-3 2.49 0.978 3.78 1.66 5.27 3.93 3.24 7.85 4.69 16.9 1.55 25-2.76 4.66-5.51 9.1-10.8 11.1-1.48-3.85-0.498-6.26 1-10 0.536-0.866 1.07-1.73 1.62-2.62 2.43-5.96 2.5-12.2 0.355-18.3-1.9-3.92-3.76-7.15-6.98-10.1 2-1 2-1 4-1z" fill="#F9FAFC"/>
<path transform="translate(600,360)" d="m0 0c0.33 0.66 0.66 1.32 1 2 1.29-0.00524 2.58-0.0105 3.92-0.0159 4.78-0.0181 9.56-0.0296 14.3-0.0391 2.07-0.00504 4.14-0.0119 6.22-0.0205 2.97-0.0121 5.95-0.0178 8.92-0.0222 0.93-0.00516 1.86-0.0103 2.82-0.0156 0.861-7.55e-5 1.72-1.51e-4 2.61-2.29e-4 0.759-0.00222 1.52-0.00444 2.3-0.00673 1.87 0.12 1.87 0.12 3.87 1.12v4c-2.31 1.15-3.61 1.12-6.17 1.11-1.29-1.13e-4 -1.29-1.13e-4 -2.61-2.29e-4 -0.93-0.00516-1.86-0.0103-2.82-0.0156-0.952-0.00141-1.9-0.00283-2.88-0.00429-3.05-0.00561-6.09-0.0182-9.14-0.0309-2.06-0.00501-4.12-0.00958-6.19-0.0137-5.06-0.011-10.1-0.0283-15.2-0.0488-0.826-2.89-1-4.89-1-8z" fill="#EAEBED"/>
<path transform="translate(1013,374)" d="m0 0c1.49 0.495 1.49 0.495 3 1 0.909 4.95 1.29 9.1 0 14-2.31 2.31-2.31 2.31-5 4-0.598 0.392-1.2 0.784-1.81 1.19-6.53 2.42-12.7 2.15-19.2-0.188-2.8-1.49-5.42-3.16-8-5 1.28-1.71 2.62-3.37 4-5h2c0.33 0.66 0.66 1.32 1 2 3.75 1.9 6.95 2.3 11.1 2.31 1.55 0.0251 1.55 0.0251 3.13 0.0508 3.1-0.411 3.78-1.05 5.74-3.36h2c-0.0412-1.07-0.0825-2.14-0.125-3.25 0.114-3.41 0.338-4.96 2.12-7.75z" fill="#F1F2F4"/>
<path transform="translate(1081,381)" d="m0 0h2c0.495 1.98 0.495 1.98 1 4 0.66-0.33 1.32-0.66 2-1-0.373 2.54-0.664 3.71-2.64 5.41-0.677 0.4-1.35 0.799-2.05 1.21-0.664 0.405-1.33 0.81-2.01 1.23-5.74 2.87-10.8 3.53-17.1 3.52-1.19 0.00193-1.19 0.00193-2.41 0.00391-6.11-0.11-10.5-1.23-15.8-4.38 0.66-0.33 1.32-0.66 2-1v-2h-2c0.33-0.99 0.66-1.98 1-3 4 1.33 8 2.67 12 4 8.48 0.783 15.2-0.547 22-6h2v-2z" fill="#EFF0F2"/>
<path transform="translate(1313,342)" d="m0 0c0.677 0.28 1.35 0.559 2.05 0.848 2.37 1.4 3.34 2.81 4.76 5.15 0.44 0.701 0.879 1.4 1.33 2.12 0.282 0.619 0.565 1.24 0.855 1.88-0.33 0.66-0.66 1.32-1 2-1.71-1.28-3.37-2.62-5-4v-2c-0.784 0.248-1.57 0.495-2.38 0.75-3.79 0.261-5.17-0.212-8.56-1.69-5.78-2.49-9.7-3-15.7-0.625-1.11 0.516-2.23 1.03-3.38 1.56-2.94 0.688-2.94 0.688-5 1 0.33-1.32 0.66-2.64 1-4l-4-1c11.3-7.35 22.9-7.23 35-2z" fill="#F0F1F3"/>
<path transform="translate(1083,350)" d="m0 0c2.25 0.0625 2.25 0.0625 5 1 5.67 7.08 5.59 15.3 5 24-1.07 4.57-3.28 8.09-7 11h-3c-0.943-3.6-1.35-5.34 0.438-8.69 3.05-6.46 2.11-13.2 0-19.8-0.29-0.794-0.58-1.59-0.879-2.41-0.559-2.09-0.559-2.09 0.441-5.09z" fill="#FAFBFD"/>
<path transform="translate(761,347)" d="m0 0c2 2 2 2 2.24 3.95-0.00444 0.795-0.00888 1.59-0.0135 2.41-1.51e-4 0.901-3.02e-4 1.8-4.58e-4 2.73-0.0103 0.974-0.0206 1.95-0.0313 2.95-0.00283 0.996-0.00566 1.99-0.00858 3.02-0.0112 3.19-0.0363 6.38-0.0617 9.57-0.01 2.16-0.0192 4.32-0.0273 6.48-0.0221 5.3-0.0556 10.6-0.0977 15.9h-4c-1.92-4.83-2.29-9.22-2.27-14.4-0.00191-0.783-0.00383-1.57-0.0058-2.37-0.00135-1.65 0.00229-3.29 0.0107-4.94 0.0108-2.52 5.79e-5 -5.04-0.0127-7.56 0.00132-1.6 0.00388-3.21 0.00781-4.81-0.00405-0.753-0.0081-1.51-0.0123-2.28 0.0441-4.91 0.76-7.16 4.28-10.7z" fill="#F6F7F9"/>
<path transform="translate(1109,320)" d="m0 0h2v74c-0.99-0.66-1.98-1.32-3-2-0.367-2.88-0.367-2.88-0.356-6.62-0.00204-0.68-0.00409-1.36-0.0062-2.06-0.00301-2.25 0.0155-4.5 0.0345-6.76 0.00306-1.56 0.00493-3.12 0.00568-4.69 0.00461-3.28 0.019-6.55 0.0412-9.83 0.0283-4.2 0.0392-8.41 0.0437-12.6 0.00415-3.23 0.014-6.45 0.0259-9.68 0.00571-1.55 0.0105-3.1 0.0143-4.65 0.00686-2.16 0.0205-4.33 0.0363-6.49 0.00683-1.23 0.0137-2.47 0.0207-3.74 0.14-2.88 0.14-2.88 1.14-4.88z" fill="#FBFCFE"/>
<path transform="translate(1181,386)" d="m0 0c-1.58 3.78-3.41 5.5-7 7.25-8.73 3.48-17.1 3.18-26 0.75-1.52-0.371-1.52-0.371-3.06-0.75-1.94-1.25-1.94-1.25-2.75-4.38-0.0619-0.949-0.124-1.9-0.188-2.88 3.6 0.44 6.91 0.973 10.4 2.06 7.32 1.89 13.2 1.06 20.4-1.31 5.86-1.95 5.86-1.95 8.26-0.754z" fill="#EFF0F2"/>
<path transform="translate(719,381)" d="m0 0c0.99 0.33 1.98 0.66 3 1 0.234 2.3 0.234 2.3 0 5-5.26 5.76-13.5 8.04-21 9-4.87-0.0184-9.37-0.457-14-2-0.75-2-0.75-2-1-4 0.33-0.33 0.66-0.66 1-1-0.66-0.66-1.32-1.32-2-2 1.07 0.217 1.07 0.217 2.16 0.438 9.3 1.8 17 2.33 25.8-1.44 1.87-1.3 1.87-1.3 3.44-2.75 0.846-0.743 1.69-1.49 2.56-2.25z" fill="#E8E9EB"/>
<path transform="translate(1386 340)" d="m0 0c0.887 0.495 1.77 0.99 2.69 1.5-0.33 0.66-0.66 1.32-1 2h-2c-0.33 0.99-0.66 1.98-1 3-1.01-0.33-2.02-0.66-3.06-1-5.69-1.61-10.6-1.61-15.9 1-1.01 0.454-2.02 0.908-3.06 1.38-2.87 1.59-4.68 3.28-6.94 5.62h-2c0.33-0.99 0.66-1.98 1-3-0.99-0.33-1.98-0.66-3-1v-2c2.27-1.32 4.54-2.63 6.81-3.94 0.643-0.373 1.29-0.746 1.95-1.13 7.73-4.44 17-6.13 25.6-2.43z" fill="#F1F2F4"/>
<path transform="translate(1316,381)" d="m0 0 2 1-2 1v-2zm-1 3c0.495 3.46 0.495 3.46 1 7-6.31 3.55-12.1 4.39-19.2 4.38-1.15 0.00193-1.15 0.00193-2.33 0.00391-4.5-0.0859-8.19-0.693-12.4-2.38 0.66-1.32 1.32-2.64 2-4 0.99 0.33 1.98 0.66 3 1v-2c0.619 0.165 1.24 0.33 1.88 0.5 10.6 1.69 17.1-4.5 26.1-4.5z" fill="#EBECEE"/>
<path transform="translate(501,319)" d="m0 0c12.3-0.646 24.9 1.59 35 9 3.03 3.4 3.03 3.4 2.88 6.62-0.875 2.38-0.875 2.38-3.88 4.38-0.639-0.722-1.28-1.44-1.94-2.19-3.46-3.5-7.71-5.59-12.1-7.81 0.33-1.32 0.66-2.64 1-4-0.927-0.121-1.85-0.242-2.81-0.367-1.8-0.251-1.8-0.251-3.63-0.508-1.19-0.162-2.39-0.325-3.62-0.492-0.971-0.209-1.94-0.418-2.94-0.633-0.33-0.66-0.66-1.32-1-2-2.32-0.407-4.66-0.744-7-1v-1z" fill="#EDEEF0"/>
<path transform="translate(1441 341)" d="m0 0c3.03 1.72 3.29 2.1 4.38 5.62v2.75c-3.8-0.38-6.62-0.793-10-2.62-4.44-2.04-7.82-1.14-12.3 0.438-2.94 2.07-3.54 4.52-4.31 7.94-0.124 0.743-0.247 1.49-0.375 2.25h-1c0.0116-0.71 0.0232-1.42 0.0352-2.15 0.00902-0.919 0.018-1.84 0.0273-2.79 0.0174-1.37 0.0174-1.37 0.0352-2.78 0.162-2.25 0.162-2.25-1.1-3.29v-2c7.47-5.48 15.9-7.19 24.6-3.38z" fill="#F4F5F7"/>
<path transform="translate(1417,384)" d="m0 0c0.433 0.454 0.866 0.908 1.31 1.38 3.04 2.92 5.91 3.57 10.1 3.88 3.88-0.268 6.94-1.05 10.6-2.25 0.33 0.99 0.66 1.98 1 3 0.99-0.66 1.98-1.32 3-2-0.125 1.81-0.125 1.81-1 4-6.45 3.93-12.6 3.9-20 3-3.61-1.29-6.78-2.93-10-5 0-3 0-3 1.38-4.69 1.62-1.31 1.62-1.31 3.62-1.31z" fill="#EDEEF0"/>
<path transform="translate(525,386)" d="m0 0c-2.62 2.15-4.64 3.4-8 4l2 1v2c-6.33 2.03-11.4 3.62-18 2-1.01-0.223-2.02-0.446-3.06-0.676-6.24-1.43-6.24-1.43-8.94-2.32-0.33-0.66-0.66-1.32-1-2h6v-2c1.26 0.0348 2.51 0.0696 3.8 0.105 12 0.333 12 0.333 23.5-2.55 1.71-0.559 1.71-0.559 3.71 0.441z" fill="#E1E2E4"/>
<path transform="translate(997,361)" d="m0 0c8.39 2.34 15 5.56 20 13 1.42 3.54 1.21 7.23 1 11-0.66 0.66-1.32 1.32-2 2-0.195-1.62-0.381-3.25-0.562-4.88-0.104-0.905-0.209-1.81-0.316-2.74-0.121-2.38-0.121-2.38 0.879-4.38h-3c-0.33 0.99-0.66 1.98-1 3-2-1-2-1-3.5-2.75-3.69-3.32-8.02-5.17-12.5-7.25 0.33-2.31 0.66-4.62 1-7z" fill="#FAFBFD"/>
<path transform="translate(498,320)" d="m0 0h11v2c4.62 0.66 9.24 1.32 14 2 0.495 1.49 0.495 1.49 1 3-2.83 0.75-4.84 1.03-7.75 0.535-7.15-1.18-14.8-1.03-21.9 0.0898-3.31 0.375-3.31 0.375-6.31-1.62 0.99-0.33 1.98-0.66 3-1 0.33-0.99 0.66-1.98 1-3h6v-2z" fill="#F7F8FA"/>
<path transform="translate(928,349)" d="m0 0v2h2c-0.33-0.99-0.66-1.98-1-3h2c4.54 4.92 6.91 10.2 7.12 16.9-0.0412 1.03-0.0825 2.06-0.125 3.12h-8c-0.0374-0.664-0.0748-1.33-0.113-2.01-0.382-5.13-0.808-8.71-3.89-13v-2c-1.32-0.66-2.64-1.32-4-2 2.49-1.25 3.41-0.777 6 0z" fill="#FBFCFE"/>
<path transform="translate(640,348)" d="m0 0c2.06 0.75 2.06 0.75 4 2 0.33 0.99 0.66 1.98 1 3v-3c0.33-0.66 0.66-1.32 1-2 0.33 0.99 0.66 1.98 1 3 0.99 0.33 1.98 0.66 3 1 2.25 4.13 2.48 8.4 3 13 0.33 0.99 0.66 1.98 1 3h-10l2-1v-4l-2-1-1-5c-1.42-3.16-2.55-5.55-5-8l2-1z" fill="#FBFCFE"/>
<path transform="translate(789,341)" d="m0 0h2v53c-6.45-6.45-3.11-26.9-3.12-35.9-0.00268-0.727-0.00536-1.45-0.00812-2.2-0.00583-2.09-0.00414-4.17 3.05e-4 -6.26 0.00113-1.22 0.00226-2.44 0.00342-3.7 0.129-2.89 0.129-2.89 1.13-4.89z" fill="#FBFCFE"/>
<path transform="translate(1182,342)" d="m0 0h4v29c-0.66 0.33-1.32 0.66-2 1-0.615 2.28-0.615 2.28-1 4.94-0.78 4.84-0.78 4.84-3 7.06 0.158-0.815 0.317-1.63 0.48-2.47 0.59-4 0.747-7.95 0.836-12 0.0208-0.791 0.0416-1.58 0.063-2.4 0.065-2.51 0.124-5.01 0.183-7.52 0.0432-1.71 0.0869-3.41 0.131-5.12 0.107-4.17 0.208-8.34 0.307-12.5z" fill="#F8F9FB"/>
<path transform="translate(1439,369)" d="m0 0h3v2h2c2.4 4.9 3.62 8.42 3 14-1.31 2.94-1.31 2.94-3 5h-3c-0.66 0.33-1.32 0.66-2 1-0.381-1.99-0.713-3.99-1-6 0.33-0.33 0.66-0.66 1-1 0.157-3.53 0.0403-6.62-1-10h2c-0.33-1.65-0.66-3.3-1-5z" fill="#FBFCFE"/>
<path transform="translate(1244,341)" d="m0 0h2v53h-2c-0.766-12.4-1.11-24.8-1.12-37.2-0.0025-0.672-5e-3 -1.34-0.00757-2.04-0.00587-1.92-0.00323-3.84-2.44e-4 -5.76 0.00113-1.11 0.00226-2.23 0.00342-3.37 0.129-2.65 0.129-2.65 1.13-4.65z" fill="#FAFBFD"/>
<path transform="translate(991,346)" d="m0 0c0.66 0.99 1.32 1.98 2 3-0.227 0.949-0.454 1.9-0.688 2.88-0.155 1.55-0.155 1.55-0.312 3.12 1.65 1.69 3.31 3.35 5 5 0.312 3.31 0.312 3.31 0 6-4.29 0-4.67-0.135-7.62-2.81-0.59-0.522-1.18-1.04-1.79-1.58-1.59-1.61-1.59-1.61-3.59-4.61 0.0234-2.26 0.0234-2.26 0.375-4.69 0.111-0.808 0.222-1.62 0.336-2.45 0.0954-0.615 0.191-1.23 0.289-1.86 1.49 0.99 1.49 0.99 3 2 0.188 2.62 0.188 2.62 0 5 0.99-2.97 1.98-5.94 3-9z" fill="#FBFCFE"/>
<path transform="translate(1393,354)" d="m0 0c4.78 7.17 3.12 17.7 3.06 26-0.00503 1.36-0.00959 2.72-0.0137 4.08-0.0117 3.31-0.0281 6.61-0.0488 9.92h-3v-40z" fill="#F6F7F9"/>
<path transform="translate(1250,318)" d="m0 0c2.44 3.66 2.24 5.69 2 10-1.89 1.89-4.57 1.24-7.09 1.33-0.63-0.108-1.26-0.217-1.91-0.328-2.3-3.45-2.43-4.95-2-9 3.45-2.3 4.95-2.43 9-2z" fill="#EBECEE"/>
<path transform="translate(1138,342)" d="m0 0h1c0.0198 0.953 0.0396 1.91 0.0601 2.89 0.0767 3.57 0.165 7.15 0.257 10.7 0.038 1.54 0.0729 3.08 0.104 4.62 0.107 12.1 0.107 12.1 2.58 23.8 0.99 0.33 1.98 0.66 3 1-0.33 0.66-0.66 1.32-1 2-0.33 1.32-0.66 2.64-1 4-2.31-1.98-4.62-3.96-7-6 0.66-1.32 1.32-2.64 2-4 0.184-2.38 0.184-2.38-0.0234-4.93-0.0517-0.954-0.103-1.91-0.157-2.89-0.0643-1.01-0.129-2.02-0.195-3.05-0.112-2.07-0.221-4.15-0.328-6.22-0.0535-1.01-0.107-2.02-0.162-3.06-0.74-15.6-0.74-15.6 0.865-18.8z" fill="#FBFCFE"/>
<path transform="translate(1133,340)" d="m0 0h7c-0.99 0.495-0.99 0.495-2 1v40c-3.36-5.04-3.12-10.2-3.1-16.1 0.00141-0.657 0.00283-1.31 0.00429-1.99 0.00555-2.08 0.0181-4.16 0.0309-6.23 0.00502-1.42 0.00958-2.84 0.0137-4.25 0.011-3.46 0.0282-6.91 0.0488-10.4h-2v-2z" fill="#E7E8EA"/>
<path transform="translate(795,318)" d="m0 0c1.88 2.12 1.88 2.12 3 5-0.312 3.31-0.312 3.31-1 6-1.28 0.0619-2.56 0.124-3.88 0.188-0.719 0.0348-1.44 0.0696-2.18 0.105-0.642-0.0967-1.28-0.193-1.95-0.293-2.3-3.45-2.43-4.95-2-9 3.21-2.14 4.27-2.65 8-2z" fill="#EDEDEF"/>
<path transform="translate(646,377)" d="m0 0c1.94 0.812 1.94 0.812 4 2 0.33 0.99 0.66 1.98 1 3-2.58 4.27-6.41 8.02-11 10-0.99-0.33-1.98-0.66-3-1 0.66-0.99 1.32-1.98 2-3-0.99-0.66-1.98-1.32-3-2 1.36-0.835 1.36-0.835 2.75-1.69 3.09-2.2 5.04-4.26 7.25-7.31z" fill="#F2F3F5"/>
<path transform="translate(1349,359)" d="m0 0h1v35h-3c-0.0583-4.52-0.0937-9.04-0.125-13.6-0.0251-1.92-0.0251-1.92-0.0508-3.87-0.0323-6.22-0.0588-11.7 2.18-17.6z" fill="#F6F7F9"/>
<path transform="translate(1429,362)" d="m0 0c1.63 0.709 3.26 1.44 4.88 2.19 1.36 0.609 1.36 0.609 2.74 1.23 2.87 1.91 3.55 3.27 4.38 6.58-0.33 0.66-0.66 1.32-1 2-4.78-0.579-8.02-2.4-12-5-1-3-1-3-0.0625-5.19 0.526-0.897 0.526-0.897 1.06-1.81z" fill="#F1F2F4"/>
<path transform="translate(930,377)" d="m0 0c1.65 0.33 3.3 0.66 5 1-0.241 6.15-0.241 6.15-2.4 8.58-1.48 1.21-3.03 2.32-4.6 3.42-0.99-0.66-1.98-1.32-3-2 0.33-0.66 0.66-1.32 1-2-0.66-0.66-1.32-1.32-2-2 1.98-2.31 3.96-4.62 6-7z" fill="#E3E4E6"/>
<path transform="translate(997,361)" d="m0 0c5.45 1.57 9.76 3.04 14 7-3.75 3-3.75 3-6 3v-2c-1.11 0.0206-2.23 0.0412-3.38 0.0625-3.62-0.0625-3.62-0.0625-5.62-1.06 0.33-2.31 0.66-4.62 1-7z" fill="#EBECEE"/>
<path transform="translate(765,340)" d="m0 0h13c-0.66 2.31-1.32 4.62-2 7h-11v-4c0.66-0.33 1.32-0.66 2-1-0.66-0.66-1.32-1.32-2-2z" fill="#E8E9EB"/>
<path transform="translate(747,340)" d="m0 0c7.37-0.362 7.37-0.362 10.1 1.19 1.32 2.55 0.735 4.13-0.0625 6.81-1.46-0.114-2.92-0.242-4.38-0.375-1.22-0.104-1.22-0.104-2.46-0.211-2.16-0.414-2.16-0.414-4.16-2.41 0.375-2.62 0.375-2.62 1-5z" fill="#F2F3F5"/>
<path transform="translate(1082,344)" d="m0 0c2.06 2.19 2.06 2.19 3 5-0.441 2.68-0.441 2.68-1 5-1.82-0.926-3.63-1.87-5.44-2.81-1.01-0.522-2.02-1.04-3.06-1.58-2.5-1.61-2.5-1.61-3.5-4.61 3.2-1.6 6.54-1.63 10-1z" fill="#F4F5F7"/>
<path transform="translate(758,319)" d="m0 0h7c-0.66 0.66-1.32 1.32-2 2-0.119 3.62-0.0418 7.18 0.0781 10.8 0.122 5.91 0.122 5.91-2.08 9.21-0.922-2.77-1.12-4.38-1.1-7.23 0.00322-0.802 0.00645-1.6 0.00977-2.43 0.00838-0.833 0.0168-1.67 0.0254-2.53 0.00451-0.845 0.00902-1.69 0.0137-2.56 0.0118-2.08 0.0297-4.17 0.0488-6.25l-2-1z" fill="#DEDFE1"/>
<path transform="translate(675,383)" d="m0 0c3.52 0 4.37 0.824 7 3 0.66-0.66 1.32-1.32 2-2v2l2 1c1.34 0.987 2.68 1.99 4 3h-4c0.33 0.99 0.66 1.98 1 3-5.2-1.36-8.21-3.3-12-7v-3z" fill="#F4F5F7"/>
<path transform="translate(1393,350)" d="m0 0h2c1.81 5.42 2.27 10.1 2.2 15.8-0.00283 0.811-0.00566 1.62-0.00858 2.46-0.0111 2.57-0.0362 5.13-0.0617 7.7-0.01 1.75-0.0192 3.5-0.0273 5.25-0.0219 4.27-0.0564 8.54-0.0977 12.8h-1c-0.0198-0.821-0.0396-1.64-0.0601-2.49-0.079-3.1-0.166-6.2-0.257-9.3-0.0563-1.98-0.104-3.96-0.151-5.94-0.207-6.82-0.68-13.3-2.12-20-0.416-2.26-0.416-2.26-0.416-6.26z" fill="#FCFDFF"/>
<path transform="translate(1221,340)" d="m0 0c1.48-0.0269 2.96-0.0463 4.44-0.0625 0.824-0.0116 1.65-0.0232 2.5-0.0352 2.07 0.0977 2.07 0.0977 3.07 1.1 0.0406 1.67 0.0427 3.33 0 5-4.45 0.495-4.45 0.495-9 1v-2h-2c0.33-1.65 0.66-3.3 1-5z" fill="#E9EAEC"/>
<path transform="translate(1201,340)" d="m0 0h10c-0.33 0.66-0.66 1.32-1 2 0.66 0.33 1.32 0.66 2 1v2c-2.41 1.2-3.95 1.1-6.62 1.06-1.23-0.0135-1.23-0.0135-2.48-0.0273-0.94-0.0174-0.94-0.0174-1.9-0.0352-1.12-3.75-1.12-3.75 0-6z" fill="#E9EAEC"/>
<path transform="translate(1391,368)" d="m0 0h1c0.857 5.88 1.13 11.6 1.06 17.5-0.00451 0.822-0.00902 1.64-0.0137 2.49-0.0116 2-0.0296 4.01-0.0488 6.01-2.85-2.85-2.65-5.02-3-9 0.0263-2.99 0.215-5.96 0.438-8.94 0.0522-0.779 0.104-1.56 0.158-2.36 0.128-1.9 0.265-3.8 0.404-5.7z" fill="#FAFBFD"/>
<path transform="translate(1283,345)" d="m0 0c-6.44 8.21-6.44 8.21-11 9 0.33-0.99 0.66-1.98 1-3-0.66-0.66-1.32-1.32-2-2 6.7-5.77 6.7-5.77 12-4z" fill="#F7F8FA"/>
<path transform="translate(646,377)" d="m0 0c1.94 0.812 1.94 0.812 4 2 0.33 0.99 0.66 1.98 1 3-1.32 1.32-2.64 2.64-4 4-1.65-0.99-3.3-1.98-5-3 2.88-4.88 2.88-4.88 4-6z" fill="#DFDFE1"/>
<path transform="translate(601,385)" d="m0 0c1.32 0.99 2.64 1.98 4 3-0.33-0.66-0.66-1.32-1-2 6.62 0.75 6.62 0.75 10 3-1.66 0.69-3.33 1.35-5 2-0.66 0.289-1.32 0.577-2 0.875-2 0.125-2 0.125-4.75-1.81-0.742-0.681-1.49-1.36-2.25-2.06 0.33-0.99 0.66-1.98 1-3z" fill="#EBECEE"/>
<path transform="translate(1321,381)" d="m0 0h2c-0.125 2.25-0.125 2.25-1 5-3.06 2.31-3.06 2.31-6 4-0.931-2.61-1.15-3.64-0.0625-6.25 0.351-0.577 0.701-1.15 1.06-1.75h2v2h2v-3z" fill="#F8F9FB"/>
<path transform="translate(498,320)" d="m0 0h11c-0.33 0.66-0.66 1.32-1 2-2.87 0.476-5.67 0.842-8.56 1.12-0.806 0.0864-1.61 0.173-2.44 0.262-2 0.213-4 0.414-5.99 0.613 0.33-0.66 0.66-1.32 1-2h6v-2z" fill="#FAFBFD"/>
<path transform="translate(989,343)" d="m0 0c0.99 0.33 1.98 0.66 3 1-0.309 1.03-0.619 2.06-0.938 3.12-0.938 3.26-1.57 6.51-2.06 9.88-2-2-2-2-2.06-4.44 0.0206-0.846 0.0412-1.69 0.0625-2.56-0.33-0.99-0.66-1.98-1-3 1.44-2.19 1.44-2.19 3-4z" fill="#F7F8FA"/>
<path transform="translate(724,340)" d="m0 0h5c0.027 1.46 0.0464 2.92 0.0625 4.38 0.0116 0.812 0.0232 1.62 0.0352 2.46-0.0977 2.16-0.0977 2.16-1.1 4.16h-2c-0.0606-0.626-0.121-1.25-0.184-1.9-0.0838-0.817-0.168-1.63-0.254-2.48-0.0812-0.812-0.162-1.62-0.246-2.46-0.207-2.21-0.207-2.21-1.32-4.16z" fill="#D1D2D4"/>
<path transform="translate(1013,374)" d="m0 0c0.99 0.33 1.98 0.66 3 1-0.254 1.48-0.529 2.96-0.812 4.44-0.151 0.824-0.302 1.65-0.457 2.5-0.241 0.682-0.482 1.36-0.73 2.07-0.99 0.33-1.98 0.66-3 1-0.286-7.43-0.286-7.43 2-11zm-4 11h2c-0.33 0.66-0.66 1.32-1 2-0.33-0.66-0.66-1.32-1-2z" fill="#EAEBED"/>
<path transform="translate(501,319)" d="m0 0c5.46-0.111 10.6 0.0834 16 1-0.33 0.99-0.66 1.98-1 3h-7c-0.33-0.66-0.66-1.32-1-2-2.32-0.407-4.66-0.744-7-1v-1z" fill="#A0A0A2"/>
<path transform="translate(1439,369)" d="m0 0h3v2h2c1.34 4.01 1.2 7.82 1 12-0.66 0.66-1.32 1.32-2 2-0.0374-0.652-0.0748-1.3-0.113-1.98-0.402-5.34-1.05-9.34-3.89-14z" fill="#F8F9FB"/>
<path transform="translate(924,348)" d="m0 0c2.12 0.375 2.12 0.375 4 1v2h2c-0.33-0.99-0.66-1.98-1-3h2c1.62 2.5 1.62 2.5 3 5l-2 1-2-1c-0.33 0.66-0.66 1.32-1 2-0.66-0.99-1.32-1.98-2-3-2.55-1.2-2.55-1.2-5-2 0.66-0.66 1.32-1.32 2-2z" fill="#F9FAFC"/>
<path transform="translate(758,320)" d="m0 0h2v14c-0.99 0.495-0.99 0.495-2 1-2.11-10.8-2.11-10.8 0-15z" fill="#F8F9FB"/>
<path transform="translate(1181,386)" d="m0 0c-1.19 2.5-1.19 2.5-3 5-2.69 0.312-2.69 0.312-5 0-0.33-1.32-0.66-2.64-1-4 6.75-2.12 6.75-2.12 9-1z" fill="#F8F9FB"/>
<path transform="translate(1345,340)" d="m0 0h5v10c-0.99-0.66-1.98-1.32-3-2-0.188-3.62-0.188-3.62 0-7-0.66-0.33-1.32-0.66-2-1z" fill="#DCDDDF"/>
<path transform="translate(601,380)" d="m0 0c1.98 1.65 3.96 3.3 6 5-0.66 0.66-1.32 1.32-2 2v3c-4.61-5.35-4.61-5.35-5-9 0.33-0.33 0.66-0.66 1-1z" fill="#F9FAFC"/>
<path transform="translate(682,346)" d="m0 0c0.66 1.32 1.32 2.64 2 4h-2c-0.33 0.66-0.66 1.32-1 2-0.99 0.33-1.98 0.66-3 1-0.688-1.81-0.688-1.81-1-4 1.62-2.15 2.25-3 5-3z" fill="#F8F9FB"/>
<path transform="translate(653,360)" d="m0 0h1v5h-1v-5z" fill="#000002"/>
<path transform="translate(191,137)" d="m0 0h2c-0.33 0.99-0.66 1.98-1 3-0.33-0.99-0.66-1.98-1-3z" fill="#000002"/>
<path transform="translate(1163,255)" d="m0 0 1 4z" fill="#000002"/>
<path transform="translate(965,114)" d="m0 0c0.33 0.66 0.66 1.32 1 2-0.99-0.33-1.98-0.66-3-1 0.66-0.33 1.32-0.66 2-1z" fill="#7B7B7D"/>
<path transform="translate(1442,350)" d="m0 0 2 1z" fill="#000002"/>
<path transform="translate(1013,350)" d="m0 0 2 1z" fill="#000002"/>
</svg>
